<svg xmlns="http://www.w3.org/2000/svg" width="800.000000pt" height="586.000000pt" viewBox="0 0 800.000000 586.000000" preserveAspectRatio="xMidYMid meet"><g transform="translate(0.000000,586.000000) scale(0.100000,-0.100000)" fill="#000000" stroke="none"><path d="M5532 5606 c16 -11 13 -17 -31 -60 -41 -40 -52 -46 -77 -42 -27 6 -27 5 6 -10 19 -9 78 -36 130 -60 671 -307 1201 -828 1515 -1488 l65 -137 78 3 c98 4 99 8 33 154 -328 727 -919 1309 -1644 1620 -84 36 -102 41 -75 20z"></path><path d="M805 4334 c-88 -9 -243 -37 -300 -55 -71 -22 -128 -66 -155 -120 -44 -85 -15 -129 90 -137 60 -4 100 9 100 33 0 21 -40 45 -77 45 -46 0 -50 17 -6 30 135 38 444 38 662 0 609 -107 1183 -437 1409 -810 115 -191 131 -361 46 -505 -84 -145 -305 -255 -568 -284 -148 -17 -367 -10 -447 15 -21 6 -28 105 -30 379 l-1 200 43 3 c85 6 363 -41 464 -79 91 -34 95 -69 14 -119 -74 -45 -66 -63 30 -76 64 -8 131 22 172 79 56 77 47 158 -27 237 -89 95 -288 156 -549 168 l-150 7 -7 106 c-7 120 -28 214 -61 273 -25 46 -64 71 -84 54 -26 -22 -51 -154 -61 -338 -7 -111 -8 -115 -32 -122 -14 -3 -73 -18 -132 -32 -210 -50 -368 -130 -416 -212 -18 -30 -22 -50 -19 -87 10 -123 233 -340 483 -469 l102 -53 7 -59 c16 -140 72 -190 174 -155 35 12 51 41 51 91 0 29 1 30 33 24 163 -33 219 -38 392 -33 160 4 193 8 300 36 78 20 159 50 235 87 99 49 125 67 190 133 131 133 190 264 191 421 1 103 -12 160 -62 267 -99 216 -312 443 -589 628 -292 195 -671 346 -1011 404 -114 19 -328 32 -404 25z m493 -1464 l1 -251 -22 6 c-50 14 -212 98 -289 149 -81 54 -200 165 -211 197 -11 31 22 58 101 83 103 32 268 60 378 64 l41 2 1 -250z"></path><path d="M3145 4156 c-154 -38 -299 -148 -366 -276 -37 -71 -33 -159 9 -231 20 -36 32 -70 32 -94 0 -94 78 -137 115 -64 14 25 19 28 48 21 70 -16 189 -6 260 21 138 53 300 185 345 280 55 116 6 236 -108 263 -14 4 -36 17 -50 30 -65 59 -171 78 -285 50z m-114 -247 c-44 -44 -95 -100 -111 -125 -17 -24 -36 -41 -42 -38 -18 12 -1 85 29 122 47 58 140 115 197 121 4 1 -28 -35 -73 -80z m439 41 c13 -13 20 -33 20 -60 0 -35 -7 -48 -45 -89 -52 -56 -136 -104 -220 -126 -64 -16 -185 -21 -185 -6 0 24 119 153 202 217 104 81 188 104 228 64z"></path><path d="M7201 3621 c-12 -8 -10 -30 8 -147 17 -112 40 -299 41 -336 0 -5 -105 -8 -233 -8 -168 0 -236 -3 -245 -12 -14 -14 -16 -126 -3 -146 6 -10 59 -13 244 -12 l237 1 -1 -163 c0 -90 -3 -193 -8 -230 -4 -37 -3 -74 1 -83 12 -20 140 -21 156 -2 7 7 14 65 18 128 3 63 7 130 9 149 2 19 4 72 4 118 l1 83 235 -1 c129 -1 239 2 245 5 14 9 13 138 -2 153 -9 9 -78 12 -249 12 l-237 0 -6 73 c-12 133 -48 372 -60 397 -10 22 -18 25 -76 28 -36 1 -71 -2 -79 -7z"></path><path d="M4619 3476 c-9 -19 -4 -49 24 -152 78 -282 117 -512 86 -502 -13 4 -63 76 -189 274 -79 124 -163 214 -201 214 -61 0 -102 -78 -139 -266 -23 -117 -38 -359 -26 -438 10 -61 47 -106 90 -106 77 0 92 42 101 275 7 189 12 228 28 222 6 -2 40 -57 75 -123 84 -159 135 -235 188 -284 36 -33 50 -40 85 -40 86 0 144 71 170 207 17 94 6 319 -20 411 -38 132 -113 253 -189 306 -47 32 -69 33 -83 2z"></path><path d="M5942 3335 c-95 -97 -165 -207 -205 -323 -39 -113 -42 -236 -8 -324 l22 -57 -42 -97 c-120 -284 -166 -523 -122 -649 21 -63 108 -155 146 -155 32 0 42 18 51 90 21 165 81 397 147 567 l40 102 47 -6 c59 -7 157 17 219 54 116 68 244 226 284 351 24 77 30 222 11 288 -17 60 -52 106 -96 128 -33 16 -45 17 -90 7 -118 -26 -281 -183 -449 -430 l-37 -53 0 49 c0 69 23 129 102 271 78 140 103 222 74 250 -15 15 -22 11 -94 -63z m482 -275 c0 -52 -6 -86 -18 -110 -36 -69 -92 -133 -147 -169 -53 -35 -173 -80 -184 -69 -15 14 143 246 244 359 47 52 69 69 85 67 19 -3 21 -9 20 -78z"></path><path d="M3620 3373 c-129 -20 -260 -68 -317 -117 -43 -36 -73 -102 -73 -160 0 -99 40 -119 282 -141 95 -9 200 -20 233 -26 167 -28 239 -76 195 -132 -44 -56 -246 -117 -386 -117 -147 0 -245 60 -186 113 29 27 93 21 192 -18 104 -41 155 -44 235 -14 62 23 84 49 60 73 -24 23 -118 55 -218 72 -211 37 -351 -16 -364 -137 -14 -126 190 -263 411 -276 182 -11 350 69 401 189 18 44 20 145 4 199 -15 49 -62 105 -108 128 -51 26 -152 46 -371 71 -102 12 -193 26 -203 31 -62 34 87 62 413 78 108 6 213 16 235 23 42 14 80 64 69 91 -7 20 -85 53 -158 66 -56 10 -290 13 -346 4z"></path><path d="M5255 3354 c-187 -25 -265 -48 -265 -78 0 -28 72 -96 111 -106 25 -7 39 -16 36 -23 -49 -116 -48 -115 -91 -129 -34 -11 -42 -18 -44 -43 -2 -16 1 -46 7 -66 9 -30 7 -46 -10 -95 -27 -77 -35 -180 -19 -229 14 -43 71 -110 111 -131 86 -44 265 5 431 117 94 64 109 103 61 160 -27 31 -28 32 -96 26 -38 -3 -120 -16 -183 -28 -63 -12 -118 -19 -121 -15 -6 6 23 119 38 149 8 14 25 17 107 18 129 1 211 12 223 30 13 21 11 103 -3 117 -8 8 -53 12 -135 12 -68 0 -123 4 -123 8 0 5 7 29 15 54 l16 45 112 7 c137 9 255 24 279 37 26 14 22 50 -10 98 -50 74 -68 81 -217 80 -71 -1 -175 -7 -230 -15z"></path><path d="M3027 3332 c-38 -42 -67 -267 -67 -527 0 -195 11 -270 43 -303 28 -27 89 -39 129 -23 46 18 51 61 39 342 -17 374 -34 479 -84 514 -28 20 -40 19 -60 -3z"></path><path d="M10 1030 l0 -990 130 0 129 0 3 447 c3 443 3 449 26 506 31 76 77 135 136 174 62 42 114 57 206 56 135 0 227 -49 283 -152 51 -92 57 -161 57 -617 l0 -414 131 0 130 0 -3 488 c-4 541 -3 526 -75 665 -66 125 -211 229 -360 257 -37 8 -110 11 -177 8 -107 -4 -119 -7 -189 -41 -47 -23 -91 -55 -120 -86 l-46 -49 -3 277 c-3 262 -4 278 -25 317 -44 82 -129 143 -200 144 l-33 0 0 -990z"></path><path d="M3240 1660 l0 -230 -55 0 -55 0 0 -119 0 -120 53 -3 52 -3 5 -510 c6 -563 2 -536 72 -601 45 -43 87 -63 139 -66 l44 -3 3 593 2 592 109 0 110 0 3 116 c2 64 1 118 -1 120 -2 2 -53 4 -113 4 l-108 0 0 230 0 230 -130 0 -130 0 0 -230z"></path><path d="M5060 1660 l0 -230 -55 0 -55 0 0 -120 0 -120 55 0 55 0 0 -497 0 -498 24 -50 c29 -64 82 -110 148 -130 98 -29 88 -95 88 580 l0 595 115 0 115 0 0 120 0 120 -115 0 -115 0 0 230 0 230 -130 0 -130 0 0 -230z"></path><path d="M2030 1440 c-272 -73 -473 -274 -536 -535 -23 -93 -23 -259 0 -345 111 -427 563 -661 986 -511 113 40 184 85 275 176 141 142 204 282 212 475 6 148 -11 234 -73 359 -39 79 -62 110 -133 181 -97 96 -180 149 -296 187 -112 37 -323 43 -435 13z m270 -221 c188 -30 357 -186 399 -369 15 -64 13 -176 -4 -239 -51 -192 -212 -336 -409 -364 -398 -57 -687 387 -480 740 78 134 245 233 409 242 11 0 49 -4 85 -10z"></path><path d="M4169 1437 c-130 -45 -229 -147 -264 -271 -23 -78 -17 -203 13 -268 44 -100 160 -183 348 -249 195 -68 254 -121 254 -224 0 -97 -70 -171 -171 -182 -112 -11 -201 42 -239 143 -11 30 -20 66 -20 79 l0 25 -130 0 -130 0 0 -42 c1 -109 49 -219 134 -304 183 -183 501 -191 687 -17 96 90 133 190 127 343 -3 84 -8 105 -35 161 -59 118 -161 193 -347 255 -134 44 -172 63 -209 102 -74 78 -29 205 82 232 94 22 177 -22 208 -111 l18 -49 129 0 129 0 -7 53 c-9 70 -55 166 -107 221 -26 29 -70 60 -117 84 -71 34 -82 37 -181 40 -90 2 -116 -1 -172 -21z"></path><path d="M6167 1444 c-195 -47 -373 -190 -461 -369 -109 -222 -113 -462 -9 -675 38 -80 59 -108 132 -180 148 -147 310 -213 521 -214 124 0 191 14 284 61 55 28 149 111 177 158 l19 30 0 -107 0 -108 133 0 132 0 -2 692 -3 693 -127 0 -128 0 -3 -91 -3 -91 -62 62 c-68 67 -153 115 -252 140 -74 19 -268 19 -348 -1z m345 -244 c232 -72 376 -342 313 -585 -69 -262 -330 -425 -580 -360 -222 58 -380 281 -361 510 10 133 63 241 160 333 127 120 294 156 468 102z"></path><path d="M7861 1444 c-72 -19 -146 -60 -181 -101 -16 -18 -32 -33 -35 -33 -3 0 -5 27 -5 60 l0 60 -120 0 -120 0 0 -695 0 -695 43 0 c77 1 154 50 196 125 14 26 17 82 21 400 5 358 6 372 29 429 32 80 99 147 174 175 32 11 68 21 82 21 54 0 55 2 55 141 l0 129 -42 -1 c-24 0 -67 -7 -97 -15z"></path></g></svg>