<svg xmlns:dc="http://purl.org/dc/elements/1.1/" xmlns:cc="http://creativecommons.org/ns#" xmlns:rdf="http://www.w3.org/1999/02/22-rdf-syntax-ns#" xmlns:svg="http://www.w3.org/2000/svg" xmlns="http://www.w3.org/2000/svg" xmlns:sodipodi="http://sodipodi.sourceforge.net/DTD/sodipodi-0.dtd" xmlns:inkscape="http://www.inkscape.org/namespaces/inkscape" id="svg2" xml:space="preserve" width="288" height="288" viewBox="0 0 288 288" sodipodi:docname="barbeque-nation-seeklogo.com.ai"><metadata></metadata><defs id="defs6"><clipPath clipPathUnits="userSpaceOnUse" id="clipPath20"><path d="M 0,216 H 216 V 0 H 0 Z" id="path18"></path></clipPath></defs><g id="g10" inkscape:groupmode="layer" inkscape:label="barbeque-nation-seeklogo.com" transform="matrix(1.3333333,0,0,-1.3333333,0,288)"><path d="M 0,0 H 216 V 216 H 0 Z" style="fill:#ea5707;fill-opacity:1;fill-rule:nonzero;stroke:none" id="path12"></path><g id="g14"><g id="g16" clip-path="url(#clipPath20)"><g id="g22" transform="translate(91.1254,63.6721)"><path d="m 0,0 v 0 l -0.852,-5.727 h 1.704 z m -3.404,5.469 v 0 H 3.487 L 3.022,4.117 6.067,-11.859 6.74,-13.194 H 1.509 l 0.342,1.335 -0.379,2.571 h -2.944 l -0.375,-2.571 0.375,-1.335 h -5.304 l 0.71,1.335 2.975,15.976 z M 11.131,2.055 v 0 -8.335 h 0.002 v -5.578 l -0.496,-1.336 h 5.025 l -0.501,1.336 V 2.055 L 18.242,2.048 20.643,1.406 19.835,5.469 H 6.458 L 5.649,1.406 8.051,2.048 Z m 15.372,2.078 v 0 l 0.501,1.336 h -5.026 l 0.496,-1.336 v -15.991 l -0.496,-1.336 h 5.026 l -0.501,1.336 z m 6.421,-3.061 v 0 l 0.859,0.869 h 1.837 l 0.868,-0.869 v -9.793 l -1.051,-0.911 h -1.608 l -0.915,0.905 z m -4.028,1.549 v 0 l -0.014,-13 2.606,-2.84 h 6.027 l 2.905,2.84 V 2.679 l -2.789,2.79 h -6.005 z m 13.629,1.542 v 0 L 42.16,5.469 h 4.35 l 4.974,-11.852 -0.011,10.515 -0.59,1.339 h 5.114 l -0.516,-1.339 -0.005,-16.021 0.366,-1.305 h -4.35 l -4.975,11.575 0.012,-10.238 0.589,-1.339 h -5.113 l 0.517,1.339 z M -74.714,57.999 v -1.666 c 21.439,-4.899 49.275,-8.247 70.715,-9.616 l 0.003,3.441 c -20.839,1.121 -49.879,3.979 -70.718,7.841 M 0.233,49.916 v -3.378 c 11.788,2.731 22.424,2.567 32.791,0 v 3.378 c -11.055,2.866 -21.734,2.866 -32.791,0 m 107.739,8.083 C 87.133,54.137 58.093,51.279 37.254,50.158 l 0.003,-3.441 c 21.44,1.369 49.276,4.717 70.715,9.616 z M 87.475,45.723 v 0 c 0.255,-0.832 0.53,-1.662 0.803,-2.501 V 27.092 10.971 C 87.986,10.112 87.694,9.248 87.42,8.404 93.905,7.478 100.409,6.475 106.913,5.43 c 0.347,2.974 0.694,5.961 1.059,8.967 -0.767,-0.219 -1.516,-0.434 -2.265,-0.648 -3.544,0.362 -7.088,0.72 -10.614,1.064 v 9.358 c 1.973,-0.043 3.946,-0.081 5.937,-0.119 0.913,-0.372 1.827,-0.745 2.74,-1.117 v 9.912 c -0.84,-0.382 -1.681,-0.749 -2.521,-1.117 -2.064,-0.085 -4.11,-0.177 -6.156,-0.252 v 8.184 c 2.411,0.234 4.823,0.51 7.234,0.782 1.351,-0.314 2.704,-0.635 4.056,-0.964 -0.438,3.079 -0.877,6.133 -1.315,9.163 -5.865,-1.04 -11.729,-2.004 -17.593,-2.92 M 63.908,42.811 v 0 c 0.219,-0.716 0.438,-1.431 0.658,-2.152 V 28.227 15.796 c 1.517,-1.69 3.033,-3.417 4.549,-5.168 3.434,-0.353 6.887,-0.76 10.339,-1.189 1.535,1.532 3.07,3.107 4.605,4.72 -0.019,4.758 -0.019,9.516 -0.019,14.264 v 14.269 c 0.201,0.868 0.402,1.742 0.603,2.62 -2.74,-0.344 -5.462,-0.692 -8.184,-1.031 0.219,-0.796 0.439,-1.593 0.676,-2.386 0.018,-3.966 0.055,-7.936 0.073,-11.907 0.018,-3.975 0.055,-7.95 0.091,-11.921 -0.511,-0.62 -1.005,-1.241 -1.498,-1.851 -1.078,0.085 -2.156,0.171 -3.233,0.248 -0.439,0.654 -0.878,1.307 -1.315,1.956 v 11.44 11.433 c 0.255,0.802 0.511,1.604 0.785,2.41 -2.722,-0.3 -5.426,-0.596 -8.13,-0.892 M 48.16,34.756 v 0 c 0.476,0.472 0.951,0.94 1.444,1.422 1.041,0.034 2.082,0.076 3.123,0.124 0.476,-0.444 0.969,-0.883 1.462,-1.321 v -7.875 c 0,-2.63 0,-5.259 0.019,-7.883 -0.604,-0.464 -1.188,-0.922 -1.773,-1.375 -0.913,0.048 -1.826,0.086 -2.722,0.114 -0.529,0.496 -1.041,0.984 -1.553,1.475 -0.018,2.548 -0.018,5.106 -0.018,7.659 0,2.554 0,5.107 0.018,7.66 m -6.832,2.118 v 0 c 0,-3.293 -0.009,-6.589 0,-9.878 0.01,-3.298 0.018,-6.595 0.018,-9.888 1.462,-1.498 2.923,-3.016 4.403,-4.553 3.398,-0.2 6.796,-0.434 10.213,-0.711 0.986,-0.906 1.972,-1.814 2.977,-2.739 1.425,1.217 2.85,2.453 4.275,3.703 -0.786,0.964 -1.571,1.909 -2.338,2.854 0,3.718 -0.019,7.435 -0.019,11.158 v 11.162 c -1.589,1.441 -3.16,2.849 -4.731,4.247 -3.399,-0.296 -6.796,-0.52 -10.176,-0.735 -1.552,-1.565 -3.088,-3.102 -4.622,-4.62 m -23.092,3.599 v 0 c 0.256,-0.625 0.512,-1.255 0.786,-1.881 0,-3.86 -0.009,-7.725 0,-11.586 0.009,-3.866 0.018,-7.727 0.037,-11.592 -0.293,-0.639 -0.585,-1.279 -0.859,-1.919 6.486,-0.085 12.989,-0.228 19.474,-0.448 0.348,1.928 0.695,3.856 1.06,5.793 -0.749,-0.172 -1.498,-0.338 -2.247,-0.51 -3.544,0.081 -7.088,0.167 -10.614,0.219 v 6.424 c 1.973,-0.005 3.946,-0.029 5.919,-0.038 0.913,-0.234 1.827,-0.469 2.741,-0.707 -0.019,2.153 -0.019,4.309 -0.019,6.462 -0.84,-0.224 -1.681,-0.449 -2.521,-0.673 -2.046,-0.019 -4.093,-0.014 -6.138,-0.024 v 5.617 c 2.392,0.019 4.804,0.048 7.216,0.105 1.352,-0.273 2.704,-0.539 4.074,-0.816 -0.438,2 -0.877,3.999 -1.316,5.989 C 29.965,40.654 24.101,40.563 18.236,40.473 M 3.037,35.424 v 0 c 0,-2.834 0.019,-5.679 0.019,-8.509 0,-2.835 0,-5.67 0.018,-8.499 1.534,0.024 3.069,0.048 4.603,0.048 0.512,0.443 1.024,0.883 1.534,1.321 0,1.213 -0.017,2.42 -0.017,3.632 -0.439,0.468 -0.877,0.93 -1.298,1.398 -1.625,-0.83 -3.233,-1.665 -4.84,-2.524 v 5.707 c 2.045,1.041 4.092,2.057 6.119,3.098 v 2.916 c -0.511,0.439 -1.023,0.882 -1.534,1.321 -1.535,0.029 -3.069,0.062 -4.604,0.091 m -7.289,5.483 v 0 c 0.329,-0.01 0.676,-0.024 1.023,-0.034 2.083,-0.066 4.165,-0.133 6.266,-0.204 2.722,-0.081 5.444,-0.134 8.185,-0.153 1.515,-1.236 3.032,-2.467 4.566,-3.694 v -3.689 c 0,-1.226 0.019,-2.462 0.019,-3.688 -0.896,-0.654 -1.791,-1.308 -2.685,-1.962 0.894,-0.639 1.789,-1.279 2.685,-1.914 v -2.142 c 0,-2.124 0.019,-4.243 0.019,-6.367 -1.535,-1.193 -3.052,-2.39 -4.568,-3.588 -2.74,-0.019 -5.462,-0.034 -8.184,-0.115 -2.101,-0.062 -4.184,-0.124 -6.248,-0.191 -0.347,-0.005 -0.694,-0.019 -1.023,-0.028 0.146,0.654 0.292,1.307 0.456,1.961 -0.018,3.98 -0.027,7.96 -0.036,11.94 -0.01,3.98 -0.019,7.965 0,11.945 -0.165,0.64 -0.329,1.279 -0.475,1.923 M -21.443,36.55 v 0 c 0,-1.365 -0.009,-2.73 0,-4.09 0.009,-1.364 0.019,-2.729 0.019,-4.094 1.479,-0.01 2.959,-0.024 4.457,-0.043 0.53,0.473 1.06,0.945 1.589,1.422 -0.018,1.684 -0.018,3.369 -0.018,5.054 -0.566,0.52 -1.114,1.054 -1.663,1.589 -1.461,0.052 -2.922,0.109 -4.384,0.162 m -6.741,3.856 v 0 c -0.201,0.735 -0.402,1.475 -0.603,2.219 5.097,-0.434 10.212,-0.849 15.327,-1.193 1.498,-1.403 2.996,-2.782 4.513,-4.152 0,-1.751 -0.009,-3.503 0,-5.249 0.009,-1.756 0.018,-3.503 0.018,-5.249 -1.188,-1.16 -2.375,-2.325 -3.562,-3.503 0.731,-1.403 1.498,-2.797 2.229,-4.176 0.73,-1.379 1.498,-2.744 2.265,-4.104 0.621,-0.644 1.261,-1.289 1.9,-1.924 -3.252,-0.171 -6.486,-0.338 -9.719,-0.505 0.165,0.701 0.329,1.403 0.511,2.104 -0.639,1.323 -1.259,2.659 -1.881,3.994 -0.621,1.332 -1.243,2.683 -1.864,4.038 -0.786,-0.014 -1.571,-0.034 -2.357,-0.048 0,-1.388 0.019,-2.782 0.019,-4.17 0,-1.385 0.019,-2.774 0.055,-4.162 0.329,-0.692 0.657,-1.379 1.005,-2.062 -2.905,-0.219 -5.792,-0.434 -8.678,-0.658 0.292,0.768 0.584,1.532 0.876,2.29 -0.017,4.415 -0.017,8.834 -0.036,13.253 -0.018,4.415 -0.018,8.838 -0.018,13.257 m -39.241,-0.458 v 0 c 0,-4.266 0.009,-8.542 0.018,-12.804 0.009,-4.271 0.018,-8.537 0.037,-12.804 1.535,0.163 3.069,0.325 4.604,0.478 0.511,0.682 1.022,1.364 1.534,2.042 0,1.742 -0.018,3.488 -0.018,5.24 -0.439,0.658 -0.877,1.317 -1.297,1.99 -1.626,-1.265 -3.234,-2.572 -4.842,-3.909 0,2.863 -0.018,5.727 -0.018,8.595 2.047,1.518 4.092,2.982 6.12,4.405 v 4.208 c -0.511,0.674 -1.023,1.356 -1.535,2.048 -1.534,0.168 -3.069,0.339 -4.603,0.511 m -7.289,9.206 v 0 c 0.329,-0.062 0.657,-0.119 1.005,-0.182 2.082,-0.373 4.183,-0.749 6.284,-1.122 2.722,-0.491 5.444,-0.954 8.184,-1.373 1.517,-1.953 3.033,-3.856 4.568,-5.727 v -5.073 c 0,-1.685 0.018,-3.379 0.018,-5.063 -0.895,-0.879 -1.79,-1.771 -2.686,-2.678 0.896,-0.897 1.791,-1.79 2.704,-2.662 v -2.941 c 0,-2.919 0.018,-5.84 0.018,-8.757 -1.516,-1.812 -3.033,-3.669 -4.549,-5.559 -2.74,-0.396 -5.462,-0.83 -8.184,-1.288 -2.1,-0.358 -4.202,-0.716 -6.284,-1.064 -0.347,-0.058 -0.676,-0.115 -0.987,-0.163 0.128,1.036 0.274,2.081 0.439,3.126 -0.019,6.237 -0.037,12.474 -0.055,18.716 -0.018,6.237 -0.018,12.484 0,18.727 -0.165,1.021 -0.329,2.052 -0.475,3.083 m 32.372,-14.895 v 0 c 0.237,-1.751 0.493,-3.488 0.73,-5.225 0.237,-1.728 0.493,-3.455 0.749,-5.173 -0.968,-0.019 -1.936,-0.038 -2.886,-0.057 0.237,1.756 0.456,3.512 0.694,5.258 0.237,1.738 0.457,3.47 0.713,5.197 m -5.974,10.685 c 0.238,-0.873 0.475,-1.746 0.731,-2.615 -0.841,-4.967 -1.687,-10.001 -2.503,-15.085 -0.828,-5.153 -1.644,-10.355 -2.466,-15.643 -0.402,-0.926 -0.805,-1.866 -1.206,-2.796 2.996,0.414 5.992,0.777 8.988,1.145 -0.219,0.792 -0.42,1.599 -0.621,2.405 0.183,1.613 0.384,3.221 0.603,4.829 1.662,0.115 3.325,0.229 4.987,0.339 0.219,-1.522 0.439,-3.035 0.676,-4.543 -0.201,-0.811 -0.402,-1.627 -0.584,-2.434 2.922,0.291 5.882,0.588 8.841,0.874 -0.383,0.715 -0.767,1.437 -1.133,2.162 -0.876,4.475 -1.757,9.008 -2.63,13.591 -0.881,4.628 -1.735,9.315 -2.594,14.049 0.256,0.735 0.512,1.47 0.785,2.2 -3.964,0.458 -7.928,0.993 -11.874,1.522 M 60.038,1.633 v 0 C 76.18,0.26 92.322,-1.829 108.463,-4.588 v 1.666 C 92.322,0.578 76.18,3.199 60.038,4.906 Z M -74.413,-4.588 c 16.201,3.003 32.403,5.146 48.604,6.478 V 5.123 C -42.01,3.449 -58.212,0.781 -74.413,-2.922 Z M 6.708,70.993 C 6.777,70.692 6.847,70.393 6.917,70.092 6.915,68.106 6.913,66.12 6.913,64.134 V 58.179 C 6.844,57.842 6.776,57.505 6.708,57.168 c 0.149,0.029 0.298,0.06 0.448,0.09 0.916,0.187 1.832,0.353 2.751,0.504 1.194,0.174 2.389,0.316 3.586,0.429 0.666,0.663 1.332,1.325 2,1.973 v 3.326 1.115 c -0.394,0.314 -0.785,0.628 -1.177,0.934 0.392,0.369 0.783,0.731 1.177,1.095 v 1.925 1.925 c -0.668,0.594 -1.334,1.184 -2,1.755 C 12.296,72.1 11.101,71.925 9.907,71.716 8.988,71.532 8.072,71.331 7.156,71.104 7.006,71.068 6.857,71.031 6.708,70.993 m 3.199,-1.959 v 0 -4.343 -4.345 c 0.672,0.106 1.344,0.2 2.017,0.284 0.223,0.255 0.448,0.505 0.672,0.756 v 1.885 c -0.19,0.221 -0.381,0.44 -0.572,0.659 -0.706,-0.527 -1.412,-1.059 -2.117,-1.604 v 2.916 c 0.896,0.686 1.793,1.355 2.689,2.006 v 1.512 c -0.224,0.199 -0.449,0.4 -0.672,0.599 -0.673,-0.098 -1.345,-0.204 -2.017,-0.325 m 6.707,2.459 c -0.002,-2.016 -0.002,-4.032 -0.002,-6.047 v -6.044 c -0.127,-0.338 -0.254,-0.677 -0.382,-1.015 1.261,0.008 2.523,-0.025 3.786,-0.098 -0.148,0.35 -0.293,0.696 -0.438,1.042 -0.002,1.284 -0.006,2.571 -0.006,3.855 0,1.287 -0.002,2.574 -0.002,3.86 0.612,-1.502 1.227,-3.01 1.839,-4.53 0.612,-1.523 1.228,-3.059 1.842,-4.597 1.074,-0.186 2.147,-0.406 3.221,-0.662 -0.091,0.345 -0.181,0.688 -0.27,1.03 v 5.938 c 0,1.979 0,3.959 10e-4,5.941 0.128,0.292 0.255,0.585 0.385,0.879 -1.263,0.37 -2.525,0.683 -3.786,0.939 0.145,-0.36 0.29,-0.725 0.436,-1.089 0,-1.313 0.001,-2.626 0.001,-3.938 0,-1.311 0.005,-2.624 0.006,-3.937 -0.614,1.579 -1.229,3.157 -1.842,4.72 -0.611,1.557 -1.227,3.109 -1.839,4.647 -1.073,0.061 -2.147,0.088 -3.22,0.082 0.089,-0.327 0.178,-0.651 0.27,-0.976 m 13.625,-5.251 -0.351,-1.089 -1.145,0.003 0.928,-0.672 -0.357,-1.088 0.925,0.674 0.925,-0.674 -0.355,1.088 0.927,0.672 -1.144,-0.003 z m -26.978,0 L 2.909,65.153 1.764,65.156 2.692,64.484 2.336,63.396 3.261,64.07 4.185,63.396 3.83,64.484 4.757,65.156 3.612,65.153 Z M 17.575,84.623 C 16.221,79.6 21.692,73.984 27.948,83.649 L 26.38,84.79 c 1.311,2.111 3.368,3.23 6.505,3.027 -2.007,-1.477 -3.644,-3.434 -4.838,-5.964 l 0.011,-0.005 c -3.554,-6.79 3.905,-11.919 8.789,-4.373 l -2.661,1.993 c 2.606,4.195 6.695,6.42 12.931,6.016 -8.58,-6.312 -13.75,-17.036 -14.101,-33.999 -10.925,2.742 -21.849,2.794 -32.774,0 -0.351,16.963 -5.521,27.687 -14.101,33.999 6.236,0.404 10.326,-1.821 12.931,-6.016 L -3.59,77.475 c 4.885,-7.546 12.344,-2.417 8.789,4.373 l 0.051,0.025 c -1.193,2.52 -2.826,4.47 -4.828,5.944 3.137,0.203 5.194,-0.916 6.506,-3.027 l -1.57,-1.141 c 6.233,-9.627 11.654,-4.078 10.336,0.937 -1.941,0.324 -3.644,1.995 -3.321,3.94 l 2.221,13.349 V 89.692 c 0,-1.069 0.874,-1.943 1.943,-1.943 1.069,0 1.943,0.874 1.943,1.943 v 12.183 l 2.221,-13.349 c 0.313,-1.879 -1.268,-3.503 -3.126,-3.903 m -39.001,-80.46 -0.365,1.306 h 4.35 l 4.974,-11.852 -0.011,10.515 -0.59,1.339 h 5.113 l -0.516,-1.339 -0.004,-16.021 0.366,-1.305 h -4.351 l -4.974,11.575 0.011,-10.238 0.59,-1.339 h -5.113 l 0.516,1.339 z" style="fill:#ffffff;fill-opacity:1;fill-rule:evenodd;stroke:none" id="path24"></path></g></g></g></g></svg>