<svg xmlns="http://www.w3.org/2000/svg" width="512.000000pt" height="512.000000pt" viewBox="0 0 512.000000 512.000000" preserveAspectRatio="xMidYMid meet"><g transform="translate(0.000000,512.000000) scale(0.100000,-0.100000)" fill="#000000" stroke="none"><path d="M2419 4663 c-10 -11 -14 -48 -14 -130 0 -137 4 -143 100 -143 89 0 95 9 95 148 0 137 -4 142 -99 142 -52 0 -72 -4 -82 -17z"></path><path d="M2409 4247 c-259 -74 -350 -392 -166 -581 141 -143 352 -151 499 -18 111 100 147 259 89 395 -30 69 -110 149 -181 181 -72 33 -173 42 -241 23z m157 -213 c74 -35 102 -119 65 -192 -68 -134 -273 -87 -273 63 0 106 111 175 208 129z"></path><path d="M1506 4019 c-39 -45 -58 -87 -51 -109 3 -11 91 -75 195 -144 226 -149 225 -149 251 -141 31 10 93 109 85 137 -7 29 -395 288 -430 288 -15 0 -35 -12 -50 -31z"></path><path d="M3227 3919 c-144 -96 -199 -138 -203 -156 -5 -17 3 -38 30 -78 53 -80 60 -78 273 62 209 137 223 148 223 183 0 41 -64 120 -98 120 -18 0 -94 -45 -225 -131z"></path><path d="M1302 3407 c-19 -20 -22 -35 -22 -106 0 -74 2 -84 25 -106 l24 -25 1176 0 1176 0 24 25 c22 21 25 33 25 103 0 65 -4 84 -21 106 l-20 26 -1183 0 -1183 0 -21 -23z"></path><path d="M2367 3009 c-10 -6 -160 -172 -333 -370 -245 -281 -314 -365 -314 -386 0 -19 15 -42 55 -80 60 -58 94 -76 129 -67 14 3 131 129 290 310 147 168 279 310 292 316 20 9 29 8 49 -8 13 -10 137 -149 275 -309 139 -159 259 -296 268 -302 33 -26 69 -15 136 43 89 75 90 96 4 196 -195 228 -544 626 -565 646 -22 20 -33 22 -146 22 -67 0 -130 -5 -140 -11z"></path><path d="M2428 2380 l-28 -21 0 -185 c0 -220 2 -224 98 -224 103 0 102 -1 102 224 0 223 2 217 -88 224 -47 3 -62 0 -84 -18z"></path><path d="M2162 1604 l-22 -15 0 -590 c0 -586 0 -589 21 -610 18 -18 30 -21 91 -17 46 2 72 9 78 18 6 9 10 263 10 612 0 580 -1 598 -19 608 -30 16 -133 12 -159 -6z"></path><path d="M2552 1609 l-22 -8 0 -503 c0 -331 4 -516 11 -542 34 -121 149 -186 329 -186 71 0 75 7 60 82 -19 92 -23 98 -75 98 -60 0 -91 14 -110 49 -12 25 -15 72 -15 261 l0 230 89 0 c111 0 121 8 121 89 0 31 -5 62 -12 69 -8 8 -46 12 -105 12 l-93 0 0 163 c0 89 -5 169 -10 177 -10 17 -129 23 -168 9z"></path><path d="M3625 1611 c-123 -31 -174 -102 -183 -258 l-5 -92 -66 -3 -66 -3 -3 -74 c-3 -87 0 -91 81 -91 l57 0 0 -350 c0 -335 1 -350 19 -360 21 -11 112 -13 149 -4 l22 6 0 354 0 354 79 0 c55 0 82 4 90 14 7 9 11 41 9 83 l-3 68 -87 3 -88 3 0 50 c0 65 22 116 55 129 15 6 48 10 75 10 l49 0 6 55 c9 70 1 101 -27 109 -30 8 -125 6 -163 -3z"></path><path d="M3966 1597 c-23 -23 -26 -34 -26 -97 0 -94 15 -110 103 -110 86 0 97 13 97 111 0 99 -10 111 -88 117 -55 4 -63 2 -86 -21z"></path><path d="M4345 1607 c-13 -7 -15 -76 -15 -511 0 -568 1 -577 69 -645 48 -48 109 -69 225 -77 120 -9 124 -4 99 98 l-18 73 -64 6 c-54 5 -69 11 -88 33 -23 27 -23 31 -23 267 l0 239 89 0 c108 0 121 9 121 81 0 84 -6 89 -115 89 l-95 0 0 160 c0 197 -3 202 -105 198 -36 -1 -72 -6 -80 -11z"></path><path d="M559 1247 c-170 -58 -275 -203 -286 -397 -16 -252 137 -446 378 -482 91 -14 177 1 262 43 62 32 167 127 167 152 0 14 -92 107 -106 107 -4 0 -27 -18 -51 -41 -112 -103 -271 -115 -375 -29 -113 93 -123 305 -20 413 91 97 258 102 371 12 25 -20 48 -34 53 -33 4 2 30 21 58 43 32 25 50 47 50 61 0 23 -62 85 -120 121 -94 57 -262 70 -381 30z"></path><path d="M1201 1246 c-10 -12 -12 -90 -9 -333 5 -354 8 -375 74 -451 19 -23 60 -53 92 -69 51 -25 68 -28 157 -28 114 0 169 16 241 71 24 19 46 34 48 34 2 0 11 -20 20 -45 19 -48 39 -59 92 -53 25 3 30 8 36 43 4 22 7 216 7 430 1 292 -2 394 -11 403 -16 16 -160 16 -176 0 -9 -9 -12 -82 -12 -268 0 -147 -5 -271 -11 -293 -13 -47 -60 -102 -110 -128 -49 -25 -133 -25 -178 -1 -64 35 -71 61 -72 292 -1 113 -4 250 -8 305 l-6 100 -81 3 c-62 2 -84 -1 -93 -12z"></path><path d="M3950 1241 c-6 -13 -10 -166 -10 -430 l0 -411 25 -16 c32 -21 151 -16 166 7 14 23 12 842 -3 857 -7 7 -43 12 -90 12 -66 0 -79 -3 -88 -19z"></path><path d="M3100 580 c-16 -16 -20 -33 -20 -92 0 -40 4 -78 8 -84 25 -39 124 -46 166 -13 24 19 26 26 26 95 0 97 -15 114 -100 114 -47 0 -64 -4 -80 -20z"></path></g></svg>